<?xml version="1.0" standalone="no"?>
<!DOCTYPE svg PUBLIC "-//W3C//DTD SVG 20010904//EN"
 "http://www.w3.org/TR/2001/REC-SVG-20010904/DTD/svg10.dtd">
<svg version="1.0" xmlns="http://www.w3.org/2000/svg"
 width="100.000000pt" height="100.000000pt" viewBox="0 0 100.000000 100.000000"
 preserveAspectRatio="xMidYMid meet">

<g transform="translate(0.000000,100.000000) scale(0.100000,-0.100000)"
fill="#000000" stroke="none">
<path d="M381 974 c-260 -70 -421 -336 -356 -589 24 -94 63 -163 129 -229 69
-69 135 -108 221 -131 313 -81 615 153 615 476 0 317 -306 555 -609 473z m302
-61 c80 -38 172 -122 210 -191 69 -127 76 -284 19 -407 -37 -78 -122 -171
-190 -208 -161 -87 -361 -72 -495 37 -109 89 -166 195 -175 328 -13 209 108
387 313 461 38 13 73 17 150 14 88 -2 108 -6 168 -34z"/>
<path d="M376 890 c-116 -37 -213 -128 -259 -242 -16 -40 -21 -76 -21 -149 -1
-90 1 -99 37 -171 140 -285 509 -320 699 -66 105 139 101 345 -9 489 -101 133
-286 191 -447 139z m241 -46 c63 -22 97 -44 84 -57 -13 -13 12 -63 39 -77 11
-6 20 -16 20 -23 0 -8 -3 -9 -8 -1 -4 6 -17 16 -29 23 -32 16 -30 1 6 -63 35
-62 49 -102 31 -91 -9 6 -10 1 -5 -16 12 -36 9 -133 -5 -159 -17 -32 -7 -34
26 -7 16 13 35 22 42 20 31 -11 5 198 -38 299 -25 60 -26 68 -9 52 11 -10 34
-47 52 -83 29 -59 32 -74 32 -156 0 -76 -4 -98 -26 -146 -44 -93 -132 -174
-211 -194 -15 -4 -29 -13 -32 -20 -3 -8 -15 -19 -28 -26 -19 -9 -21 -9 -10 2
21 23 14 27 -47 28 -69 0 -128 14 -156 36 -18 15 -17 15 12 0 41 -19 113 -19
161 0 27 12 38 13 41 4 5 -15 41 76 46 116 2 17 6 46 9 65 6 30 3 28 -19 -20
-45 -95 -91 -130 -173 -130 -46 0 -53 3 -90 44 -22 24 -43 57 -47 75 -3 17
-11 31 -17 31 -6 0 -7 7 -4 16 3 8 2 13 -3 9 -5 -3 -14 7 -19 22 -6 16 -11 21
-11 12 -1 -9 6 -35 13 -58 8 -22 18 -60 21 -83 4 -23 9 -47 12 -53 2 -5 -3 -1
-12 10 -28 35 -58 155 -59 240 -1 92 12 185 23 166 6 -8 14 0 24 26 9 21 26
53 38 71 28 42 11 41 -35 -4 -60 -59 -96 -154 -96 -257 0 -43 30 -134 56 -171
18 -26 18 -42 0 -27 -23 20 -65 125 -72 182 -13 109 46 249 134 315 91 70 232
94 339 58z m-364 -139 c-9 -19 -18 -33 -21 -31 -4 5 26 66 33 66 3 0 -3 -16
-12 -35z"/>
<path d="M438 833 c-15 -2 -34 -14 -43 -26 -8 -11 -17 -18 -21 -14 -13 13 -43
-14 -74 -69 -18 -30 -30 -57 -27 -60 2 -3 10 9 17 26 21 50 51 67 121 68 76 1
92 -7 130 -66 36 -57 38 -46 2 15 -15 26 -45 58 -70 73 -45 29 -45 35 5 50 29
9 9 10 -40 3z"/>
<path d="M251 615 c-6 -22 -10 -65 -10 -95 1 -30 3 -47 6 -37 2 9 14 17 26 17
22 1 22 1 3 15 -21 16 -18 17 26 19 14 1 25 -2 22 -6 -2 -4 4 -6 15 -5 28 2 4
35 -29 39 -14 2 -25 9 -25 16 0 7 -7 17 -15 22 -11 7 -1 10 33 10 30 0 46 4
42 10 -3 6 -21 10 -40 10 -18 0 -35 6 -38 13 -2 6 -9 -6 -16 -28z"/>
<path d="M504 625 c-18 -15 -18 -15 6 -10 14 3 35 7 48 8 12 0 22 5 22 9 0 14
-55 9 -76 -7z"/>
<path d="M570 590 c-8 -5 -24 -10 -36 -10 -11 0 -28 -8 -37 -18 -21 -23 -22
-39 -3 -23 16 13 69 4 60 -10 -3 -5 6 -9 20 -9 20 0 26 5 25 23 -1 39 -12 57
-29 47z m20 -50 c0 -5 -4 -10 -10 -10 -5 0 -10 5 -10 10 0 6 5 10 10 10 6 0
10 -4 10 -10z"/>
<path d="M370 440 c0 -5 5 -10 11 -10 5 0 7 5 4 10 -3 6 -8 10 -11 10 -2 0 -4
-4 -4 -10z"/>
<path d="M354 365 c-18 -15 -18 -16 5 -35 13 -11 33 -20 45 -19 l21 0 -21 9
c-39 16 -38 30 3 30 28 0 34 -3 23 -10 -13 -8 -12 -10 3 -10 9 0 17 5 17 10 0
6 8 10 18 10 30 1 -8 17 -54 23 -28 4 -47 1 -60 -8z"/>
<path d="M700 340 c-7 -17 -26 -49 -42 -71 -37 -51 -28 -64 15 -21 17 18 26
32 19 32 -9 0 -6 13 8 41 12 23 19 43 17 45 -2 3 -10 -9 -17 -26z"/>
</g>
</svg>
